<?xml version="1.0" encoding="UTF-8"?>
<svg xmlns="http://www.w3.org/2000/svg" width="210mm" height="297mm" viewBox="0 0 210 297">
  <!-- ArUco Markers 0-3, DICT_4X4_50 -->
  <!-- Print at 100% scale - each marker should be 50mm x 50mm -->
  <rect x="0" y="0" width="210" height="297" fill="white"/>
  <text x="105" y="20" font-family="Arial" font-size="8" text-anchor="middle" font-weight="bold">ArUco Markers - DICT_4X4_50 - Print at 100%</text>
  <text x="105" y="28" font-family="Arial" font-size="5" text-anchor="middle">Each marker should be 50mm. MEASURE after printing!</text>
  <rect x="30.00" y="50.00" width="8.33" height="8.33" fill="black" stroke="none"/>
  <rect x="38.33" y="50.00" width="8.33" height="8.33" fill="black" stroke="none"/>
  <rect x="46.67" y="50.00" width="8.33" height="8.33" fill="black" stroke="none"/>
  <rect x="55.00" y="50.00" width="8.33" height="8.33" fill="black" stroke="none"/>
  <rect x="63.33" y="50.00" width="8.33" height="8.33" fill="black" stroke="none"/>
  <rect x="71.67" y="50.00" width="8.33" height="8.33" fill="black" stroke="none"/>
  <rect x="30.00" y="58.33" width="8.33" height="8.33" fill="black" stroke="none"/>
  <rect x="38.33" y="58.33" width="8.33" height="8.33" fill="white" stroke="none"/>
  <rect x="46.67" y="58.33" width="8.33" height="8.33" fill="white" stroke="none"/>
  <rect x="55.00" y="58.33" width="8.33" height="8.33" fill="white" stroke="none"/>
  <rect x="63.33" y="58.33" width="8.33" height="8.33" fill="black" stroke="none"/>
  <rect x="71.67" y="58.33" width="8.33" height="8.33" fill="black" stroke="none"/>
  <rect x="30.00" y="66.67" width="8.33" height="8.33" fill="black" stroke="none"/>
  <rect x="38.33" y="66.67" width="8.33" height="8.33" fill="black" stroke="none"/>
  <rect x="46.67" y="66.67" width="8.33" height="8.33" fill="white" stroke="none"/>
  <rect x="55.00" y="66.67" width="8.33" height="8.33" fill="black" stroke="none"/>
  <rect x="63.33" y="66.67" width="8.33" height="8.33" fill="black" stroke="none"/>
  <rect x="71.67" y="66.67" width="8.33" height="8.33" fill="black" stroke="none"/>
  <rect x="30.00" y="75.00" width="8.33" height="8.33" fill="black" stroke="none"/>
  <rect x="38.33" y="75.00" width="8.33" height="8.33" fill="white" stroke="none"/>
  <rect x="46.67" y="75.00" width="8.33" height="8.33" fill="black" stroke="none"/>
  <rect x="55.00" y="75.00" width="8.33" height="8.33" fill="white" stroke="none"/>
  <rect x="63.33" y="75.00" width="8.33" height="8.33" fill="white" stroke="none"/>
  <rect x="71.67" y="75.00" width="8.33" height="8.33" fill="black" stroke="none"/>
  <rect x="30.00" y="83.33" width="8.33" height="8.33" fill="black" stroke="none"/>
  <rect x="38.33" y="83.33" width="8.33" height="8.33" fill="white" stroke="none"/>
  <rect x="46.67" y="83.33" width="8.33" height="8.33" fill="black" stroke="none"/>
  <rect x="55.00" y="83.33" width="8.33" height="8.33" fill="black" stroke="none"/>
  <rect x="63.33" y="83.33" width="8.33" height="8.33" fill="white" stroke="none"/>
  <rect x="71.67" y="83.33" width="8.33" height="8.33" fill="black" stroke="none"/>
  <rect x="30.00" y="91.67" width="8.33" height="8.33" fill="black" stroke="none"/>
  <rect x="38.33" y="91.67" width="8.33" height="8.33" fill="black" stroke="none"/>
  <rect x="46.67" y="91.67" width="8.33" height="8.33" fill="black" stroke="none"/>
  <rect x="55.00" y="91.67" width="8.33" height="8.33" fill="black" stroke="none"/>
  <rect x="63.33" y="91.67" width="8.33" height="8.33" fill="black" stroke="none"/>
  <rect x="71.67" y="91.67" width="8.33" height="8.33" fill="black" stroke="none"/>
  <text x="55.0" y="108" font-family="Arial" font-size="6" text-anchor="middle">ID: 0 (50mm)</text>
  <rect x="115.00" y="50.00" width="8.33" height="8.33" fill="black" stroke="none"/>
  <rect x="123.33" y="50.00" width="8.33" height="8.33" fill="black" stroke="none"/>
  <rect x="131.67" y="50.00" width="8.33" height="8.33" fill="black" stroke="none"/>
  <rect x="140.00" y="50.00" width="8.33" height="8.33" fill="black" stroke="none"/>
  <rect x="148.33" y="50.00" width="8.33" height="8.33" fill="black" stroke="none"/>
  <rect x="156.67" y="50.00" width="8.33" height="8.33" fill="black" stroke="none"/>
  <rect x="115.00" y="58.33" width="8.33" height="8.33" fill="black" stroke="none"/>
  <rect x="123.33" y="58.33" width="8.33" height="8.33" fill="white" stroke="none"/>
  <rect x="131.67" y="58.33" width="8.33" height="8.33" fill="black" stroke="none"/>
  <rect x="140.00" y="58.33" width="8.33" height="8.33" fill="white" stroke="none"/>
  <rect x="148.33" y="58.33" width="8.33" height="8.33" fill="white" stroke="none"/>
  <rect x="156.67" y="58.33" width="8.33" height="8.33" fill="black" stroke="none"/>
  <rect x="115.00" y="66.67" width="8.33" height="8.33" fill="black" stroke="none"/>
  <rect x="123.33" y="66.67" width="8.33" height="8.33" fill="white" stroke="none"/>
  <rect x="131.67" y="66.67" width="8.33" height="8.33" fill="white" stroke="none"/>
  <rect x="140.00" y="66.67" width="8.33" height="8.33" fill="black" stroke="none"/>
  <rect x="148.33" y="66.67" width="8.33" height="8.33" fill="white" stroke="none"/>
  <rect x="156.67" y="66.67" width="8.33" height="8.33" fill="black" stroke="none"/>
  <rect x="115.00" y="75.00" width="8.33" height="8.33" fill="black" stroke="none"/>
  <rect x="123.33" y="75.00" width="8.33" height="8.33" fill="black" stroke="none"/>
  <rect x="131.67" y="75.00" width="8.33" height="8.33" fill="black" stroke="none"/>
  <rect x="140.00" y="75.00" width="8.33" height="8.33" fill="black" stroke="none"/>
  <rect x="148.33" y="75.00" width="8.33" height="8.33" fill="black" stroke="none"/>
  <rect x="156.67" y="75.00" width="8.33" height="8.33" fill="black" stroke="none"/>
  <rect x="115.00" y="83.33" width="8.33" height="8.33" fill="black" stroke="none"/>
  <rect x="123.33" y="83.33" width="8.33" height="8.33" fill="white" stroke="none"/>
  <rect x="131.67" y="83.33" width="8.33" height="8.33" fill="black" stroke="none"/>
  <rect x="140.00" y="83.33" width="8.33" height="8.33" fill="white" stroke="none"/>
  <rect x="148.33" y="83.33" width="8.33" height="8.33" fill="white" stroke="none"/>
  <rect x="156.67" y="83.33" width="8.33" height="8.33" fill="black" stroke="none"/>
  <rect x="115.00" y="91.67" width="8.33" height="8.33" fill="black" stroke="none"/>
  <rect x="123.33" y="91.67" width="8.33" height="8.33" fill="black" stroke="none"/>
  <rect x="131.67" y="91.67" width="8.33" height="8.33" fill="black" stroke="none"/>
  <rect x="140.00" y="91.67" width="8.33" height="8.33" fill="black" stroke="none"/>
  <rect x="148.33" y="91.67" width="8.33" height="8.33" fill="black" stroke="none"/>
  <rect x="156.67" y="91.67" width="8.33" height="8.33" fill="black" stroke="none"/>
  <text x="140.0" y="108" font-family="Arial" font-size="6" text-anchor="middle">ID: 1 (50mm)</text>
  <rect x="30.00" y="160.00" width="8.33" height="8.33" fill="black" stroke="none"/>
  <rect x="38.33" y="160.00" width="8.33" height="8.33" fill="black" stroke="none"/>
  <rect x="46.67" y="160.00" width="8.33" height="8.33" fill="black" stroke="none"/>
  <rect x="55.00" y="160.00" width="8.33" height="8.33" fill="black" stroke="none"/>
  <rect x="63.33" y="160.00" width="8.33" height="8.33" fill="black" stroke="none"/>
  <rect x="71.67" y="160.00" width="8.33" height="8.33" fill="black" stroke="none"/>
  <rect x="30.00" y="168.33" width="8.33" height="8.33" fill="black" stroke="none"/>
  <rect x="38.33" y="168.33" width="8.33" height="8.33" fill="black" stroke="none"/>
  <rect x="46.67" y="168.33" width="8.33" height="8.33" fill="black" stroke="none"/>
  <rect x="55.00" y="168.33" width="8.33" height="8.33" fill="white" stroke="none"/>
  <rect x="63.33" y="168.33" width="8.33" height="8.33" fill="black" stroke="none"/>
  <rect x="71.67" y="168.33" width="8.33" height="8.33" fill="black" stroke="none"/>
  <rect x="30.00" y="176.67" width="8.33" height="8.33" fill="black" stroke="none"/>
  <rect x="38.33" y="176.67" width="8.33" height="8.33" fill="black" stroke="none"/>
  <rect x="46.67" y="176.67" width="8.33" height="8.33" fill="white" stroke="none"/>
  <rect x="55.00" y="176.67" width="8.33" height="8.33" fill="white" stroke="none"/>
  <rect x="63.33" y="176.67" width="8.33" height="8.33" fill="black" stroke="none"/>
  <rect x="71.67" y="176.67" width="8.33" height="8.33" fill="black" stroke="none"/>
  <rect x="30.00" y="185.00" width="8.33" height="8.33" fill="black" stroke="none"/>
  <rect x="38.33" y="185.00" width="8.33" height="8.33" fill="black" stroke="none"/>
  <rect x="46.67" y="185.00" width="8.33" height="8.33" fill="white" stroke="none"/>
  <rect x="55.00" y="185.00" width="8.33" height="8.33" fill="black" stroke="none"/>
  <rect x="63.33" y="185.00" width="8.33" height="8.33" fill="black" stroke="none"/>
  <rect x="71.67" y="185.00" width="8.33" height="8.33" fill="black" stroke="none"/>
  <rect x="30.00" y="193.33" width="8.33" height="8.33" fill="black" stroke="none"/>
  <rect x="38.33" y="193.33" width="8.33" height="8.33" fill="white" stroke="none"/>
  <rect x="46.67" y="193.33" width="8.33" height="8.33" fill="white" stroke="none"/>
  <rect x="55.00" y="193.33" width="8.33" height="8.33" fill="black" stroke="none"/>
  <rect x="63.33" y="193.33" width="8.33" height="8.33" fill="white" stroke="none"/>
  <rect x="71.67" y="193.33" width="8.33" height="8.33" fill="black" stroke="none"/>
  <rect x="30.00" y="201.67" width="8.33" height="8.33" fill="black" stroke="none"/>
  <rect x="38.33" y="201.67" width="8.33" height="8.33" fill="black" stroke="none"/>
  <rect x="46.67" y="201.67" width="8.33" height="8.33" fill="black" stroke="none"/>
  <rect x="55.00" y="201.67" width="8.33" height="8.33" fill="black" stroke="none"/>
  <rect x="63.33" y="201.67" width="8.33" height="8.33" fill="black" stroke="none"/>
  <rect x="71.67" y="201.67" width="8.33" height="8.33" fill="black" stroke="none"/>
  <text x="55.0" y="218" font-family="Arial" font-size="6" text-anchor="middle">ID: 2 (50mm)</text>
  <rect x="115.00" y="160.00" width="8.33" height="8.33" fill="black" stroke="none"/>
  <rect x="123.33" y="160.00" width="8.33" height="8.33" fill="black" stroke="none"/>
  <rect x="131.67" y="160.00" width="8.33" height="8.33" fill="black" stroke="none"/>
  <rect x="140.00" y="160.00" width="8.33" height="8.33" fill="black" stroke="none"/>
  <rect x="148.33" y="160.00" width="8.33" height="8.33" fill="black" stroke="none"/>
  <rect x="156.67" y="160.00" width="8.33" height="8.33" fill="black" stroke="none"/>
  <rect x="115.00" y="168.33" width="8.33" height="8.33" fill="black" stroke="none"/>
  <rect x="123.33" y="168.33" width="8.33" height="8.33" fill="black" stroke="none"/>
  <rect x="131.67" y="168.33" width="8.33" height="8.33" fill="black" stroke="none"/>
  <rect x="140.00" y="168.33" width="8.33" height="8.33" fill="white" stroke="none"/>
  <rect x="148.33" y="168.33" width="8.33" height="8.33" fill="white" stroke="none"/>
  <rect x="156.67" y="168.33" width="8.33" height="8.33" fill="black" stroke="none"/>
  <rect x="115.00" y="176.67" width="8.33" height="8.33" fill="black" stroke="none"/>
  <rect x="123.33" y="176.67" width="8.33" height="8.33" fill="white" stroke="none"/>
  <rect x="131.67" y="176.67" width="8.33" height="8.33" fill="white" stroke="none"/>
  <rect x="140.00" y="176.67" width="8.33" height="8.33" fill="white" stroke="none"/>
  <rect x="148.33" y="176.67" width="8.33" height="8.33" fill="black" stroke="none"/>
  <rect x="156.67" y="176.67" width="8.33" height="8.33" fill="black" stroke="none"/>
  <rect x="115.00" y="185.00" width="8.33" height="8.33" fill="black" stroke="none"/>
  <rect x="123.33" y="185.00" width="8.33" height="8.33" fill="white" stroke="none"/>
  <rect x="131.67" y="185.00" width="8.33" height="8.33" fill="black" stroke="none"/>
  <rect x="140.00" y="185.00" width="8.33" height="8.33" fill="white" stroke="none"/>
  <rect x="148.33" y="185.00" width="8.33" height="8.33" fill="white" stroke="none"/>
  <rect x="156.67" y="185.00" width="8.33" height="8.33" fill="black" stroke="none"/>
  <rect x="115.00" y="193.33" width="8.33" height="8.33" fill="black" stroke="none"/>
  <rect x="123.33" y="193.33" width="8.33" height="8.33" fill="black" stroke="none"/>
  <rect x="131.67" y="193.33" width="8.33" height="8.33" fill="white" stroke="none"/>
  <rect x="140.00" y="193.33" width="8.33" height="8.33" fill="white" stroke="none"/>
  <rect x="148.33" y="193.33" width="8.33" height="8.33" fill="white" stroke="none"/>
  <rect x="156.67" y="193.33" width="8.33" height="8.33" fill="black" stroke="none"/>
  <rect x="115.00" y="201.67" width="8.33" height="8.33" fill="black" stroke="none"/>
  <rect x="123.33" y="201.67" width="8.33" height="8.33" fill="black" stroke="none"/>
  <rect x="131.67" y="201.67" width="8.33" height="8.33" fill="black" stroke="none"/>
  <rect x="140.00" y="201.67" width="8.33" height="8.33" fill="black" stroke="none"/>
  <rect x="148.33" y="201.67" width="8.33" height="8.33" fill="black" stroke="none"/>
  <rect x="156.67" y="201.67" width="8.33" height="8.33" fill="black" stroke="none"/>
  <text x="140.0" y="218" font-family="Arial" font-size="6" text-anchor="middle">ID: 3 (50mm)</text>
</svg>