<?xml version="1.0" encoding="UTF-8"?>
<svg xmlns="http://www.w3.org/2000/svg" width="800" height="840" viewBox="0 0 800 840">
  <!-- ArUco Marker ID 3 - DICT_4X4_50 -->
  <!-- Print and measure: target size is written below marker -->
  <rect x="0" y="0" width="800" height="800" fill="white"/>
  <rect x="100" y="100" width="100" height="100" fill="black"/>
  <rect x="200" y="100" width="100" height="100" fill="black"/>
  <rect x="300" y="100" width="100" height="100" fill="black"/>
  <rect x="400" y="100" width="100" height="100" fill="black"/>
  <rect x="500" y="100" width="100" height="100" fill="black"/>
  <rect x="600" y="100" width="100" height="100" fill="black"/>
  <rect x="100" y="200" width="100" height="100" fill="black"/>
  <rect x="200" y="200" width="100" height="100" fill="black"/>
  <rect x="300" y="200" width="100" height="100" fill="black"/>
  <rect x="600" y="200" width="100" height="100" fill="black"/>
  <rect x="100" y="300" width="100" height="100" fill="black"/>
  <rect x="500" y="300" width="100" height="100" fill="black"/>
  <rect x="600" y="300" width="100" height="100" fill="black"/>
  <rect x="100" y="400" width="100" height="100" fill="black"/>
  <rect x="300" y="400" width="100" height="100" fill="black"/>
  <rect x="600" y="400" width="100" height="100" fill="black"/>
  <rect x="100" y="500" width="100" height="100" fill="black"/>
  <rect x="200" y="500" width="100" height="100" fill="black"/>
  <rect x="600" y="500" width="100" height="100" fill="black"/>
  <rect x="100" y="600" width="100" height="100" fill="black"/>
  <rect x="200" y="600" width="100" height="100" fill="black"/>
  <rect x="300" y="600" width="100" height="100" fill="black"/>
  <rect x="400" y="600" width="100" height="100" fill="black"/>
  <rect x="500" y="600" width="100" height="100" fill="black"/>
  <rect x="600" y="600" width="100" height="100" fill="black"/>
  <text x="400" y="830" font-family="Arial" font-size="24" text-anchor="middle">ID: 3</text>
</svg>